# xmcd CD database file
#
# Track frame offsets:
#	150
#	20925
#	39887
#	62547
#	81125
#	98982
#	123887
#	152012
#	165702
#	181995
#	203507
#	220222
#	231255
#	253102
#	277377
#	298987
#	325892
#
# Disc length: 4536 seconds
#
# Revision: 2
# Processed by: cddbd v1.5.1PL0 Copyright (c) Steve Scherf et al.
# Submitted via: CDex 1.50beta9
#
DISCID=f911b611
DTITLE=Gregg Allman - One More Try - An Anthology (2)
DYEAR=1997
DGENRE=Southern Rock
TTITLE0=Bring It On Back (Solo demo)
TTITLE1=Catfish Blues (Solo Demo)
TTITLE2=Come and Go Blues (Live)
TTITLE3=Adam's Song-Shadow Dream Song (Solo demo)
TTITLE4=These Days (Alt. version)
TTITLE5=God Rest His Soul (Band demo)
TTITLE6=Queen Of Hearts (Alt. version)
TTITLE7=Rain (demo)
TTITLE8=It's Not My Cross To Bear (Demo)
TTITLE9=Win, Lose Or Draw
TTITLE10=Will The Circle Be Unbroken (Solo demo)
TTITLE11=Shadow Dream Song (Solo demo)
TTITLE12=Multi Colored Lady (Alt. version)
TTITLE13=Bad Dream
TTITLE14=Lead Me On
TTITLE15=Oncoming Traffic
TTITLE16=Melissa (Demo)
EXTD=YEAR: 1997
EXTT0=
EXTT1=
EXTT2=
EXTT3=
EXTT4=
EXTT5=
EXTT6=
EXTT7=
EXTT8=
EXTT9=
EXTT10=
EXTT11=
EXTT12=
EXTT13=
EXTT14=
EXTT15=
EXTT16=
PLAYORDER=
